<svg width="53" height="68" viewBox="0 0 53 68" fill="none" xmlns="http://www.w3.org/2000/svg">
<path d="M51.7795 41.9987L48.3343 36.4168C47.6108 35.1726 46.9562 32.8188 46.9562 31.4402V22.9328C46.9562 15.0308 42.2018 8.20471 35.3458 5.01025C33.5543 1.91667 30.2469 0 26.4571 0C22.7018 0 19.3256 1.98393 17.5341 5.11113C10.8159 8.37284 6.16487 15.1316 6.16487 22.9328V31.4402C6.16487 32.8188 5.51028 35.1726 4.78678 36.3832L1.3071 41.9987C-0.0709862 44.2516 -0.381056 46.7399 0.480251 49.0265C1.3071 51.2794 3.27088 53.028 5.82035 53.8686C12.5041 56.0879 19.5323 57.1639 26.5605 57.1639C33.5887 57.1639 40.617 56.0879 47.3007 53.9022C49.7124 53.1288 51.5728 51.3467 52.4686 49.0265C53.3643 46.7063 53.1232 44.1507 51.7795 41.9987Z" fill="#292D32"/>
<path d="M36.2409 60.56C34.794 64.4606 30.9698 67.2515 26.491 67.2515C23.7692 67.2515 21.082 66.1755 19.187 64.2588C18.0846 63.2501 17.2577 61.905 16.7754 60.5264C17.2233 60.5936 17.6711 60.6272 18.1535 60.6945C18.9459 60.7954 19.7728 60.8962 20.5996 60.9635C22.5634 61.1316 24.5616 61.2325 26.5599 61.2325C28.5236 61.2325 30.4874 61.1316 32.4167 60.9635C33.1402 60.8962 33.8637 60.8626 34.5528 60.7617C35.104 60.6945 35.6553 60.6272 36.2409 60.56Z" fill="#292D32"/>
</svg>
