<svg width="53" height="53" viewBox="0 0 53 53" fill="none" xmlns="http://www.w3.org/2000/svg">
<path d="M40.4869 5.9003V1.91568C40.4869 0.868442 39.4858 0 38.2786 0C37.0714 0 36.0703 0.868442 36.0703 1.91568V5.74704H16.9314V1.91568C16.9314 0.868442 15.9303 0 14.7231 0C13.5159 0 12.5148 0.868442 12.5148 1.91568V5.9003C4.56478 6.53886 0.707559 10.6512 0.11867 16.7558C0.0597807 17.4966 0.766447 18.1096 1.59089 18.1096H51.4108C52.2647 18.1096 52.9714 17.471 52.883 16.7558C52.2941 10.6512 48.4369 6.53886 40.4869 5.9003Z" fill="#292D32"/>
<path d="M50.0556 21.9404H2.94444C1.325 21.9404 0 23.0897 0 24.4946V40.2287C0 47.8914 4.41667 52.9999 14.7222 52.9999H38.2778C48.5833 52.9999 53 47.8914 53 40.2287V24.4946C53 23.0897 51.675 21.9404 50.0556 21.9404ZM18.285 43.3193C18.1378 43.4215 17.9906 43.5492 17.8433 43.6258C17.6667 43.728 17.49 43.8046 17.3133 43.8557C17.1367 43.9323 16.96 43.9834 16.7833 44.009C16.5772 44.0345 16.4006 44.0601 16.1944 44.0601C15.8117 44.0601 15.4289 43.9834 15.0756 43.8557C14.6928 43.728 14.3983 43.5492 14.1039 43.3193C13.5739 42.834 13.25 42.1699 13.25 41.5058C13.25 40.8417 13.5739 40.1776 14.1039 39.6923C14.3983 39.4624 14.6928 39.2836 15.0756 39.1559C15.6056 38.9516 16.1944 38.9005 16.7833 39.0027C16.96 39.0282 17.1367 39.0793 17.3133 39.1559C17.49 39.207 17.6667 39.2836 17.8433 39.3858C17.9906 39.488 18.1378 39.5901 18.285 39.6923C18.815 40.1776 19.1389 40.8417 19.1389 41.5058C19.1389 42.1699 18.815 42.834 18.285 43.3193ZM18.285 34.3795C17.7256 34.8392 16.96 35.1202 16.1944 35.1202C15.4289 35.1202 14.6633 34.8392 14.1039 34.3795C13.5739 33.8942 13.25 33.2301 13.25 32.566C13.25 31.9019 13.5739 31.2378 14.1039 30.7525C14.9283 30.0373 16.2239 29.8074 17.3133 30.2161C17.6961 30.3438 18.02 30.5226 18.285 30.7525C18.815 31.2378 19.1389 31.9019 19.1389 32.566C19.1389 33.2301 18.815 33.8942 18.285 34.3795ZM28.5906 43.3193C28.0311 43.7791 27.2656 44.0601 26.5 44.0601C25.7344 44.0601 24.9689 43.7791 24.4094 43.3193C23.8794 42.834 23.5556 42.1699 23.5556 41.5058C23.5556 40.8417 23.8794 40.1776 24.4094 39.6923C25.4989 38.7472 27.5011 38.7472 28.5906 39.6923C29.1206 40.1776 29.4444 40.8417 29.4444 41.5058C29.4444 42.1699 29.1206 42.834 28.5906 43.3193ZM28.5906 34.3795C28.4433 34.4817 28.2961 34.5838 28.1489 34.686C27.9722 34.7882 27.7956 34.8648 27.6189 34.9159C27.4422 34.9925 27.2656 35.0436 27.0889 35.0691C26.8828 35.0947 26.7061 35.1202 26.5 35.1202C25.7344 35.1202 24.9689 34.8392 24.4094 34.3795C23.8794 33.8942 23.5556 33.2301 23.5556 32.566C23.5556 31.9019 23.8794 31.2378 24.4094 30.7525C24.6744 30.5226 24.9983 30.3438 25.3811 30.2161C26.4706 29.8074 27.7661 30.0373 28.5906 30.7525C29.1206 31.2378 29.4444 31.9019 29.4444 32.566C29.4444 33.2301 29.1206 33.8942 28.5906 34.3795ZM38.8961 43.3193C38.3367 43.7791 37.5711 44.0601 36.8056 44.0601C36.04 44.0601 35.2744 43.7791 34.715 43.3193C34.185 42.834 33.8611 42.1699 33.8611 41.5058C33.8611 40.8417 34.185 40.1776 34.715 39.6923C35.8044 38.7472 37.8067 38.7472 38.8961 39.6923C39.4261 40.1776 39.75 40.8417 39.75 41.5058C39.75 42.1699 39.4261 42.834 38.8961 43.3193ZM38.8961 34.3795C38.7489 34.4817 38.6017 34.5838 38.4544 34.686C38.2778 34.7882 38.1011 34.8648 37.9244 34.9159C37.7478 34.9925 37.5711 35.0436 37.3944 35.0691C37.1883 35.0947 36.9822 35.1202 36.8056 35.1202C36.04 35.1202 35.2744 34.8392 34.715 34.3795C34.185 33.8942 33.8611 33.2301 33.8611 32.566C33.8611 31.9019 34.185 31.2378 34.715 30.7525C35.0094 30.5226 35.3039 30.3438 35.6867 30.2161C36.2167 30.0117 36.8056 29.9606 37.3944 30.0628C37.5711 30.0884 37.7478 30.1394 37.9244 30.2161C38.1011 30.2672 38.2778 30.3438 38.4544 30.446L38.8961 30.7525C39.4261 31.2378 39.75 31.9019 39.75 32.566C39.75 33.2301 39.4261 33.8942 38.8961 34.3795Z" fill="#292D32"/>
</svg>
