<svg width="53" height="53" viewBox="0 0 53 53" fill="none" xmlns="http://www.w3.org/2000/svg">
<path d="M50.9615 53.0003H2.03846C0.924103 53.0003 0 52.1318 0 51.0846C0 50.0374 0.924103 49.1689 2.03846 49.1689H50.9615C52.0759 49.1689 53 50.0374 53 51.0846C53 52.1318 52.0759 53.0003 50.9615 53.0003Z" fill="#292D32"/>
<path d="M9.10524 16.293H4.75652C3.26165 16.293 2.03857 17.4424 2.03857 18.8472V40.8644C2.03857 42.2692 3.26165 43.4186 4.75652 43.4186H9.10524C10.6001 43.4186 11.8232 42.2692 11.8232 40.8644V18.8472C11.8232 17.4168 10.6001 16.293 9.10524 16.293Z" fill="#292D32"/>
<path d="M28.6721 8.15137H24.3234C22.8285 8.15137 21.6055 9.30076 21.6055 10.7056V40.8707C21.6055 42.2755 22.8285 43.4249 24.3234 43.4249H28.6721C30.167 43.4249 31.3901 42.2755 31.3901 40.8707V10.7056C31.3901 9.30076 30.167 8.15137 28.6721 8.15137Z" fill="#292D32"/>
<path d="M48.2449 0H43.8962C42.4013 0 41.1782 1.14939 41.1782 2.55421V40.8673C41.1782 42.2721 42.4013 43.4215 43.8962 43.4215H48.2449C49.7398 43.4215 50.9628 42.2721 50.9628 40.8673V2.55421C50.9628 1.14939 49.7398 0 48.2449 0Z" fill="#292D32"/>
</svg>
