<svg width="53" height="52" viewBox="0 0 53 52" fill="none" xmlns="http://www.w3.org/2000/svg">
<path d="M39.2394 0H32.346C23.8617 0 18.5591 5.11851 18.5591 13.3081V23.6731H30.3309L24.8427 18.3755C24.445 17.9916 24.2594 17.5053 24.2594 17.0191C24.2594 16.5328 24.445 16.0465 24.8427 15.6626C25.6116 14.9205 26.8842 14.9205 27.6531 15.6626L36.535 24.2362C37.3039 24.9783 37.3039 26.2068 36.535 26.949L27.6531 35.5225C26.8842 36.2647 25.6116 36.2647 24.8427 35.5225C24.0738 34.7803 24.0738 33.5518 24.8427 32.8097L30.3309 27.512H18.5591V37.877C18.5591 46.0666 23.8617 51.1851 32.346 51.1851H39.2129C47.6971 51.1851 52.9997 46.0666 52.9997 37.877V13.3081C53.0263 5.11851 47.7236 0 39.2394 0Z" fill="#292D32"/>
<path d="M1.98849 23.6729C0.901449 23.6729 0 24.543 0 25.5923C0 26.6416 0.901449 27.5117 1.98849 27.5117H18.5592V23.6729H1.98849Z" fill="#292D32"/>
</svg>
