<svg width="53" height="48" viewBox="0 0 53 48" fill="none" xmlns="http://www.w3.org/2000/svg">
<path d="M5.3 47.7C3.8425 47.7 2.59479 47.181 1.55687 46.1431C0.518958 45.1052 0 43.8575 0 42.4V0L4.43875 4.43875L8.81125 0L13.25 4.43875L17.6887 0L22.0612 4.43875L26.5 0L30.9387 4.43875L35.3112 0L39.75 4.43875L44.1887 0L48.5612 4.43875L53 0V42.4C53 43.8575 52.481 45.1052 51.4431 46.1431C50.4052 47.181 49.1575 47.7 47.7 47.7H5.3ZM5.3 42.4H23.85V26.5H5.3V42.4ZM29.15 42.4H47.7V37.1H29.15V42.4ZM29.15 31.8H47.7V26.5H29.15V31.8ZM5.3 21.2H47.7V13.25H5.3V21.2Z" fill="black"/>
</svg>
