<svg width="54" height="53" viewBox="0 0 54 53" fill="none" xmlns="http://www.w3.org/2000/svg">
<path d="M48.3009 18.6951C43.5068 18.6951 41.5468 15.1014 43.9306 10.6936C45.3079 8.13875 44.4868 4.88202 42.0765 3.4221L37.4943 0.642647C35.4018 -0.676892 32.7002 0.109217 31.4553 2.32717L31.164 2.8606C28.7802 7.26842 24.8601 7.26842 22.4498 2.8606L22.1585 2.32717C20.9666 0.109217 18.2649 -0.676892 16.1725 0.642647L11.5902 3.4221C9.17995 4.88202 8.35886 8.16683 9.73618 10.7217C12.1465 15.1014 10.1865 18.6951 5.39235 18.6951C2.63772 18.6951 0.359863 21.0815 0.359863 24.0294V28.9706C0.359863 31.8905 2.61124 34.3049 5.39235 34.3049C10.1865 34.3049 12.1465 37.8986 9.73618 42.3064C8.35886 44.8612 9.17995 48.118 11.5902 49.5779L16.1725 52.3574C18.2649 53.6769 20.9666 52.8908 22.2114 50.6728L22.5028 50.1394C24.8866 45.7316 28.8066 45.7316 31.2169 50.1394L31.5083 50.6728C32.7532 52.8908 35.4548 53.6769 37.5473 52.3574L42.1295 49.5779C44.5398 48.118 45.3609 44.8332 43.9835 42.3064C41.5733 37.8986 43.5333 34.3049 48.3274 34.3049C51.082 34.3049 53.3599 31.9185 53.3599 28.9706V24.0294C53.3334 21.1095 51.082 18.6951 48.3009 18.6951ZM26.8466 35.6245C22.1055 35.6245 18.2384 31.5255 18.2384 26.5C18.2384 21.4745 22.1055 17.3755 26.8466 17.3755C31.5877 17.3755 35.4548 21.4745 35.4548 26.5C35.4548 31.5255 31.5877 35.6245 26.8466 35.6245Z" fill="#292D32"/>
</svg>
