<svg width="53" height="53" viewBox="0 0 53 53" fill="none" xmlns="http://www.w3.org/2000/svg">
<path d="M24.2916 11.0418V2.2085H28.7083V11.0418H24.2916ZM38.977 17.1147L35.9405 14.0783L42.1239 7.72933L45.2155 10.8762L38.977 17.1147ZM41.9583 28.7085V24.2918H50.7916V28.7085H41.9583ZM24.2916 50.7918V41.9585H28.7083V50.7918H24.2916ZM14.0228 17.0043L7.72909 10.8762L10.876 7.78454L17.1145 14.0231L14.0228 17.0043ZM42.0687 45.271L35.9405 38.922L38.9218 35.9408L45.2155 42.0137L42.0687 45.271ZM2.20825 28.7085V24.2918H11.0416V28.7085H2.20825ZM10.876 45.271L7.78429 42.1241L13.9676 35.9408L15.5687 37.4314L17.1697 38.9772L10.876 45.271ZM26.4999 39.7502C22.8194 39.7502 19.6909 38.462 17.1145 35.8856C14.5381 33.3092 13.2499 30.1807 13.2499 26.5002C13.2499 22.8196 14.5381 19.6911 17.1145 17.1147C19.6909 14.5384 22.8194 13.2502 26.4999 13.2502C30.1805 13.2502 33.3089 14.5384 35.8853 17.1147C38.4617 19.6911 39.7499 22.8196 39.7499 26.5002C39.7499 30.1807 38.4617 33.3092 35.8853 35.8856C33.3089 38.462 30.1805 39.7502 26.4999 39.7502ZM26.4999 35.3335C28.9291 35.3335 31.0086 34.4686 32.7385 32.7387C34.4683 31.0088 35.3333 28.9293 35.3333 26.5002C35.3333 24.071 34.4683 21.9915 32.7385 20.2616C31.0086 18.5318 28.9291 17.6668 26.4999 17.6668C24.0708 17.6668 21.9912 18.5318 20.2614 20.2616C18.5315 21.9915 17.6666 24.071 17.6666 26.5002C17.6666 28.9293 18.5315 31.0088 20.2614 32.7387C21.9912 34.4686 24.0708 35.3335 26.4999 35.3335Z" fill="black"/>
</svg>
